<svg xmlns="http://www.w3.org/2000/svg" width="161" height="161" viewBox="0 0 161 161">
    <g fill="none" fill-rule="evenodd" stroke="#FFF" transform="translate(1 1)">
        <circle cx="79.5" cy="79.5" r="79.5"/>
        <g stroke-linecap="round" stroke-linejoin="round" stroke-width="3">
            <path d="M97.569 52.54A32.283 32.283 0 0 0 79.434 47C61.521 47 47 61.522 47 79.435c0 17.912 14.521 32.433 32.434 32.433 17.913 0 32.435-14.52 32.435-32.433 0-6.327-1.812-12.231-4.945-17.221L85.437 84.577"/>
            <path d="M89.275 61.54a20.328 20.328 0 0 0-9.84-2.523c-11.277 0-20.418 9.141-20.418 20.418 0 11.276 9.141 20.417 20.417 20.417 11.276 0 20.417-9.141 20.417-20.417 0-2.544-.464-4.978-1.314-7.224"/>
            <path d="M87.328 79.31c0 .79-.114 1.552-.326 2.272a8.018 8.018 0 1 1 .327-2.272z"/>
        </g>
    </g>
</svg>
