<svg xmlns="http://www.w3.org/2000/svg" width="161" height="161" viewBox="0 0 161 161">
    <g fill="none" fill-rule="evenodd" transform="translate(1 1)">
        <circle cx="79.5" cy="79.5" r="79.5" stroke="#FFF"/>
        <g fill="#FFF" transform="translate(48 53)">
            <path d="M28.045 53.547c3.339 0 6.045-2.695 6.045-6.019 0-3.324-2.706-6.018-6.045-6.018S22 44.204 22 47.528s2.706 6.019 6.045 6.019z"/>
            <rect width="3.757" height="11.248" y="17.759" rx="1.878"/>
            <rect width="3.757" height="11.248" x="60.243" y="17.759" rx="1.878"/>
            <rect width="3.757" height="38.479" x="10.108" y="4.144" rx="1.878"/>
            <rect width="3.757" height="38.479" x="51.135" y="4.144" rx="1.878"/>
            <rect width="3.757" height="23.087" x="20.216" y="11.84" rx="1.878"/>
            <rect width="3.757" height="49.72" x="30.324" rx="1.878"/>
            <rect width="3.757" height="23.087" x="41.027" y="11.84" rx="1.878"/>
        </g>
    </g>
</svg>
